<?xml version="1.0" standalone="no"?>
<!DOCTYPE svg PUBLIC "-//W3C//DTD SVG 20010904//EN"
 "http://www.w3.org/TR/2001/REC-SVG-20010904/DTD/svg10.dtd">
<svg version="1.0" xmlns="http://www.w3.org/2000/svg"
 width="609.000000pt" height="609.000000pt" viewBox="0 0 609.000000 609.000000"
 preserveAspectRatio="xMidYMid meet">
<metadata>
Created by potrace 1.14, written by Peter Selinger 2001-2017
</metadata>
<g transform="translate(0.000000,609.000000) scale(0.100000,-0.100000)"
fill="#000000" stroke="none">
<path d="M2185 5345 c-5 -2 -35 -10 -65 -20 -70 -21 -164 -84 -213 -144 -24
-29 -241 -450 -585 -1138 -301 -601 -552 -1102 -559 -1115 -7 -13 -24 -48 -39
-78 -14 -30 -31 -65 -37 -76 -15 -27 -221 -441 -265 -531 -18 -38 -36 -75 -41
-83 -5 -8 -57 -111 -116 -229 -128 -256 -147 -329 -121 -464 24 -131 128 -272
242 -330 154 -78 340 -69 482 22 65 41 98 78 186 209 107 159 174 241 300 368
241 242 475 398 791 528 172 70 403 132 560 151 28 4 61 9 75 11 51 10 378 12
470 3 659 -64 1257 -390 1651 -899 36 -47 99 -134 139 -194 126 -186 254 -258
445 -251 196 8 354 125 427 317 25 67 31 194 12 268 -18 69 -1703 3439 -1750
3500 -140 181 -393 231 -604 121 -24 -13 -72 -51 -105 -85 -55 -56 -74 -89
-243 -429 -101 -203 -186 -367 -188 -365 -2 3 -85 168 -185 369 -175 349 -185
367 -248 430 -71 70 -140 109 -229 128 -48 10 -163 14 -187 6z"/>
<path d="M2926 1544 c-357 -85 -486 -533 -227 -793 129 -130 313 -175 482
-120 337 111 439 531 191 786 -110 113 -290 164 -446 127z"/>
</g>
</svg>
